<svg width="16" height="20" viewBox="0 0 16 20" fill="none" xmlns="http://www.w3.org/2000/svg">
<path d="M13.5556 20H2.44444C1.096 20 0 18.9725 0 17.7083V2.29167C0 1.0275 1.096 0 2.44444 0H13.5556C14.904 0 16 1.0275 16 2.29167V17.7083C16 18.9725 14.904 20 13.5556 20ZM2.44444 1.25C1.832 1.25 1.33333 1.7175 1.33333 2.29167V17.7083C1.33333 18.2825 1.832 18.75 2.44444 18.75H13.5556C14.168 18.75 14.6667 18.2825 14.6667 17.7083V2.29167C14.6667 1.7175 14.168 1.25 13.5556 1.25H2.44444Z" fill="white"/>
<path d="M12.6667 12.0834H3.33334C2.96534 12.0834 2.66667 11.8034 2.66667 11.4584C2.66667 11.1134 2.96534 10.8334 3.33334 10.8334H12.6667C13.0347 10.8334 13.3333 11.1134 13.3333 11.4584C13.3333 11.8034 13.0347 12.0834 12.6667 12.0834Z" fill="white"/>
<path d="M12.6667 15.4166H3.33334C2.96534 15.4166 2.66667 15.1366 2.66667 14.7916C2.66667 14.4466 2.96534 14.1666 3.33334 14.1666H12.6667C13.0347 14.1666 13.3333 14.4466 13.3333 14.7916C13.3333 15.1366 13.0347 15.4166 12.6667 15.4166Z" fill="white"/>
<path d="M12.6667 8.75001H3.33334C2.96534 8.75001 2.66667 8.47001 2.66667 8.12501C2.66667 7.78001 2.96534 7.50001 3.33334 7.50001H12.6667C13.0347 7.50001 13.3333 7.78001 13.3333 8.12501C13.3333 8.47001 13.0347 8.75001 12.6667 8.75001Z" fill="white"/>
<path d="M8.22223 5.41659H3.33334C2.96534 5.41659 2.66667 5.13659 2.66667 4.79159C2.66667 4.44659 2.96534 4.16659 3.33334 4.16659H8.22223C8.59023 4.16659 8.8889 4.44659 8.8889 4.79159C8.8889 5.13659 8.59023 5.41659 8.22223 5.41659Z" fill="white"/>
</svg>
