<svg width="22" height="22" viewBox="0 0 22 22" fill="none" xmlns="http://www.w3.org/2000/svg">
<g clip-path="url(#clip0)">
<path d="M19.8769 10.197H19.2626V3.94472C19.2626 3.93768 19.2624 3.93046 19.2622 3.92324C19.2624 3.91653 19.2626 3.90964 19.2626 3.90276C19.2626 3.71612 19.183 3.54777 19.0561 3.43011C19.0511 3.42474 19.0459 3.41953 19.0407 3.41433L15.8022 0.216857C15.7969 0.211319 15.7913 0.206115 15.7856 0.200912C15.6681 0.0772093 15.5021 0 15.3182 0C15.3111 0 15.3041 0.000167846 15.297 0.000335693C15.2895 0.000167846 15.2819 0 15.2744 0H5.02062C3.80944 0 2.82418 0.967466 2.82418 2.15666V10.197H2.12326C0.952528 10.197 0 11.1497 0 12.3208V17.9735C0 19.1446 0.952528 20.0972 2.12326 20.0972H2.72817V20.6887C2.72817 21.4118 3.31631 22 4.03939 22H17.9606C18.6836 22 19.2718 21.4118 19.2718 20.6887V20.0972H19.8769C21.0476 20.0972 22 19.1446 22 17.9735V12.3208C22 11.1497 21.0476 10.197 19.8769 10.197ZM15.9627 2.1867L17.048 3.25823H15.9627V2.1867ZM4.11324 2.15666C4.11324 1.6783 4.52027 1.28906 5.02062 1.28906H14.6736V3.81078C14.6736 4.21697 15.0051 4.54746 15.4127 4.54746H17.9735V10.197H4.11324V2.15666ZM17.9827 20.6887C17.9827 20.701 17.9728 20.7109 17.9606 20.7109H4.03939C4.02714 20.7109 4.01723 20.701 4.01723 20.6887V18.2167C4.01723 18.2046 4.02714 18.1945 4.03939 18.1945H17.9606C17.9728 18.1945 17.9827 18.2046 17.9827 18.2167V20.6887ZM20.7109 17.9735C20.7109 18.4337 20.3368 18.8082 19.8769 18.8082H19.2718V18.2167C19.2718 17.4938 18.6836 16.9055 17.9606 16.9055H4.03939C3.31648 16.9055 2.72817 17.4938 2.72817 18.2167V18.8082H2.12326C1.66336 18.8082 1.28906 18.4337 1.28906 17.9735V12.3208C1.28906 11.8605 1.66336 11.4861 2.12326 11.4861H19.8769C20.3368 11.4861 20.7109 11.8605 20.7109 12.3208V17.9735Z" fill="#3F64A9"/>
<path d="M7.69379 12.485H3.46875C3.11292 12.485 2.82422 12.7735 2.82422 13.1295C2.82422 13.4855 3.11292 13.774 3.46875 13.774H7.69379C8.04962 13.774 8.33832 13.4855 8.33832 13.1295C8.33832 12.7735 8.04962 12.485 7.69379 12.485Z" fill="#3F64A9"/>
<path d="M5.62944 14.5952H3.46875C3.11292 14.5952 2.82422 14.8837 2.82422 15.2397C2.82422 15.5957 3.11292 15.8842 3.46875 15.8842H5.62944C5.98544 15.8842 6.27397 15.5957 6.27397 15.2397C6.27397 14.8837 5.98544 14.5952 5.62944 14.5952Z" fill="#3F64A9"/>
</g>
<defs>
<clipPath id="clip0">
<rect width="22" height="22" fill="white"/>
</clipPath>
</defs>
</svg>
