<svg width="80" height="80" viewBox="0 0 80 80" fill="none" xmlns="http://www.w3.org/2000/svg">
<path d="M2 24L0.997927 22.2691C0.380293 22.6267 0 23.2863 0 24C0 24.7137 0.380293 25.3733 0.997927 25.7309L2 24ZM40 2L41.0021 0.269147C40.3822 -0.0897157 39.6178 -0.0897157 38.9979 0.269147L40 2ZM78 24L79.0021 25.7309C79.6197 25.3733 80 24.7137 80 24C80 23.2863 79.6197 22.6267 79.0021 22.2691L78 24ZM40 46L38.9979 47.7309C39.6178 48.0897 40.3822 48.0897 41.0021 47.7309L40 46ZM79.0021 41.7309C79.958 41.1774 80.2843 39.9538 79.7309 38.9979C79.1774 38.042 77.9538 37.7157 76.9979 38.2691L79.0021 41.7309ZM40 62L38.9979 63.7309C39.6178 64.0897 40.3822 64.0897 41.0021 63.7309L40 62ZM3.00207 38.2691C2.04615 37.7157 0.822577 38.042 0.269147 38.9979C-0.284282 39.9538 0.042004 41.1774 0.997927 41.7309L3.00207 38.2691ZM79.0021 57.7309C79.958 57.1774 80.2843 55.9538 79.7309 54.9979C79.1774 54.042 77.9538 53.7157 76.9979 54.2691L79.0021 57.7309ZM40 78L38.9979 79.7309C39.6178 80.0897 40.3822 80.0897 41.0021 79.7309L40 78ZM3.00207 54.2691C2.04615 53.7157 0.822577 54.042 0.269147 54.9979C-0.284282 55.9538 0.042004 57.1774 0.997927 57.7309L3.00207 54.2691ZM3.00207 25.7309L41.0021 3.73085L38.9979 0.269147L0.997927 22.2691L3.00207 25.7309ZM38.9979 3.73085L76.9979 25.7309L79.0021 22.2691L41.0021 0.269147L38.9979 3.73085ZM76.9979 22.2691L38.9979 44.2691L41.0021 47.7309L79.0021 25.7309L76.9979 22.2691ZM41.0021 44.2691L3.00207 22.2691L0.997927 25.7309L38.9979 47.7309L41.0021 44.2691ZM76.9979 38.2691L38.9979 60.2691L41.0021 63.7309L79.0021 41.7309L76.9979 38.2691ZM41.0021 60.2691L3.00207 38.2691L0.997927 41.7309L38.9979 63.7309L41.0021 60.2691ZM76.9979 54.2691L38.9979 76.2691L41.0021 79.7309L79.0021 57.7309L76.9979 54.2691ZM41.0021 76.2691L3.00207 54.2691L0.997927 57.7309L38.9979 79.7309L41.0021 76.2691Z" fill="#4C73BC"/>
</svg>