<svg width="14" height="13" viewBox="0 0 14 13" fill="none" xmlns="http://www.w3.org/2000/svg">
<path d="M3 7H5V8H3V7Z" fill="#7F8DA8"/>
<path d="M9 7H11V8H9V7Z" fill="#7F8DA8"/>
<path d="M3 9H5V10H3V9Z" fill="#7F8DA8"/>
<path d="M9 9H11V10H9V9Z" fill="#7F8DA8"/>
<path d="M0 2H1V13H0V12V2Z" fill="#7F8DA8"/>
<path d="M13 5H14V12H13V5Z" fill="#7F8DA8"/>
<path d="M1 4H13V5H1V4Z" fill="#7F8DA8"/>
<path d="M0 12H14V13H0V12Z" fill="#7F8DA8"/>
<path d="M0 1H14V2H0V1Z" fill="#7F8DA8"/>
<path d="M13 2H14V5H13V2Z" fill="#7F8DA8"/>
<path d="M3 0H4V3H3V0Z" fill="#7F8DA8"/>
<path d="M10 0H11V3H10V0Z" fill="#7F8DA8"/>
<path d="M6 7H8V8H6V7Z" fill="#7F8DA8"/>
<path d="M6 9H8V10H6V9Z" fill="#7F8DA8"/>
</svg>
