<svg width="8" height="8" viewBox="0 0 8 8" fill="none" xmlns="http://www.w3.org/2000/svg">
<path fill-rule="evenodd" clip-rule="evenodd" d="M5.41654 4L7.69307 1.73304C7.7885 1.64061 7.86471 1.53038 7.91736 1.40863C7.97 1.28687 7.99805 1.15599 7.9999 1.02344C8.00175 0.890895 7.97736 0.759284 7.92813 0.636122C7.8789 0.512961 7.8058 0.400661 7.71298 0.305634C7.62017 0.210608 7.50947 0.134717 7.3872 0.0822925C7.26494 0.0298683 7.1335 0.00193828 7.00039 9.73529e-05C6.86728 -0.00174357 6.73512 0.0225404 6.61144 0.0715629C6.48775 0.120586 6.37498 0.193387 6.27955 0.285809L4 2.60534L1.72045 0.285809C1.62502 0.193387 1.51225 0.120586 1.38856 0.0715629C1.26488 0.0225404 1.13271 -0.00174357 0.999609 9.73529e-05C0.866502 0.00193828 0.735063 0.0298683 0.612796 0.0822925C0.49053 0.134717 0.37983 0.210608 0.287017 0.305634C0.194204 0.400661 0.121095 0.512961 0.0718652 0.636122C0.0226356 0.759284 -0.00175094 0.890895 9.77643e-05 1.02344C0.00194646 1.15599 0.0299945 1.28687 0.08264 1.40863C0.135286 1.53038 0.211498 1.64061 0.306925 1.73304L2.58346 4L0.306925 6.26696C0.211498 6.35939 0.135286 6.46962 0.08264 6.59137C0.0299945 6.71313 0.00194646 6.84401 9.77643e-05 6.97656C-0.00175094 7.10911 0.0226356 7.24072 0.0718652 7.36388C0.121095 7.48704 0.194204 7.59934 0.287017 7.69437C0.37983 7.78939 0.49053 7.86528 0.612796 7.91771C0.735063 7.97013 0.866502 7.99806 0.999609 7.9999C1.13271 8.00174 1.26488 7.97746 1.38856 7.92844C1.51225 7.87941 1.62502 7.80661 1.72045 7.71419L4 5.39466L6.27955 7.71419C6.37498 7.80661 6.48775 7.87941 6.61144 7.92844C6.73512 7.97746 6.86728 8.00174 7.00039 7.9999C7.1335 7.99806 7.26494 7.97013 7.3872 7.91771C7.50947 7.86528 7.62017 7.78939 7.71298 7.69437C7.8058 7.59934 7.8789 7.48704 7.92813 7.36388C7.97736 7.24072 8.00175 7.10911 7.9999 6.97656C7.99805 6.84401 7.97 6.71313 7.91736 6.59137C7.86471 6.46962 7.7885 6.35939 7.69307 6.26696L5.41654 4Z" fill="#7F8DA8"/>
</svg>
