<svg width="14" height="14" viewBox="0 0 14 14" fill="none" xmlns="http://www.w3.org/2000/svg">
<path d="M7.66521 6.22792L1.77913 0.309834C1.68245 0.211658 1.56743 0.133734 1.44071 0.0805564C1.31398 0.0273787 1.17805 0 1.04077 0C0.903483 0 0.767556 0.0273787 0.64083 0.0805564C0.514103 0.133734 0.399084 0.211658 0.302408 0.309834C0.108717 0.506087 0 0.771565 0 1.04829C0 1.32501 0.108717 1.59049 0.302408 1.78674L5.45013 7.02399L0.302408 12.2089C0.108717 12.4051 0 12.6706 0 12.9473C0 13.224 0.108717 13.4895 0.302408 13.6858C0.398722 13.7847 0.513578 13.8635 0.640322 13.9174C0.767065 13.9714 0.903176 13.9994 1.04077 14C1.17836 13.9994 1.31447 13.9714 1.44121 13.9174C1.56796 13.8635 1.68281 13.7847 1.77913 13.6858L7.66521 7.76768C7.77077 7.66959 7.85501 7.55055 7.91263 7.41804C7.97025 7.28554 8 7.14245 8 6.9978C8 6.85315 7.97025 6.71006 7.91263 6.57756C7.85501 6.44505 7.77077 6.32601 7.66521 6.22792Z" fill="#3F64A9"/>
<path d="M6.33479 6.22792L12.2209 0.309834C12.3175 0.211658 12.4326 0.133734 12.5593 0.0805564C12.686 0.0273787 12.8219 0 12.9592 0C13.0965 0 13.2324 0.0273787 13.3592 0.0805564C13.4859 0.133734 13.6009 0.211658 13.6976 0.309834C13.8913 0.506087 14 0.771565 14 1.04829C14 1.32501 13.8913 1.59049 13.6976 1.78674L8.54987 7.02399L13.6976 12.2089C13.8913 12.4051 14 12.6706 14 12.9473C14 13.224 13.8913 13.4895 13.6976 13.6858C13.6013 13.7847 13.4864 13.8635 13.3597 13.9174C13.2329 13.9714 13.0968 13.9994 12.9592 14C12.8216 13.9994 12.6855 13.9714 12.5588 13.9174C12.432 13.8635 12.3172 13.7847 12.2209 13.6858L6.33479 7.76768C6.22923 7.66959 6.14499 7.55055 6.08737 7.41804C6.02975 7.28554 6 7.14245 6 6.9978C6 6.85315 6.02975 6.71006 6.08737 6.57756C6.14499 6.44505 6.22923 6.32601 6.33479 6.22792Z" fill="#3F64A9"/>
</svg>
