<svg width="8" height="5" viewBox="0 0 8 5" fill="none" xmlns="http://www.w3.org/2000/svg">
<path d="M3.29324 4.70679C3.38578 4.7997 3.49587 4.87344 3.61718 4.92377C3.73848 4.97409 3.86859 5 4 5C4.13141 5 4.26152 4.97409 4.38282 4.92377C4.50413 4.87344 4.61422 4.7997 4.70676 4.70679L7.69307 1.73304C7.7885 1.64061 7.86471 1.53038 7.91736 1.40863C7.97 1.28687 7.99805 1.15599 7.9999 1.02344C8.00175 0.890895 7.97736 0.759284 7.92813 0.636122C7.8789 0.512961 7.8058 0.400661 7.71298 0.305634C7.62017 0.210608 7.50947 0.134717 7.3872 0.0822924C7.26494 0.0298683 7.1335 0.00193828 7.00039 9.73529e-05C6.86728 -0.00174357 6.73512 0.0225404 6.61144 0.0715629C6.48775 0.120586 6.37498 0.193387 6.27955 0.285809L4 2.60534L1.72045 0.285809C1.62502 0.193387 1.51225 0.120586 1.38856 0.0715629C1.26488 0.0225404 1.13271 -0.00174357 0.999609 9.73529e-05C0.866502 0.00193828 0.735063 0.0298683 0.612796 0.0822924C0.49053 0.134717 0.37983 0.210608 0.287017 0.305634C0.194204 0.400661 0.121095 0.512961 0.0718652 0.636122C0.0226356 0.759284 -0.00175094 0.890895 9.77643e-05 1.02344C0.00194646 1.15599 0.0299945 1.28687 0.08264 1.40863C0.135286 1.53038 0.211498 1.64061 0.306925 1.73304L3.29324 4.70679Z" fill="#C8D0DF"/>
</svg>
