<svg width="5" height="8" viewBox="0 0 5 8" fill="none" xmlns="http://www.w3.org/2000/svg">
<path d="M0.293211 3.29324C0.200302 3.38578 0.126559 3.49587 0.0762343 3.61718C0.0259099 3.73848 0 3.86859 0 4C0 4.13141 0.0259099 4.26152 0.0762343 4.38282C0.126559 4.50413 0.200302 4.61422 0.293211 4.70676L3.26696 7.69307C3.35939 7.7885 3.46962 7.86471 3.59137 7.91736C3.71313 7.97 3.84401 7.99805 3.97656 7.9999C4.10911 8.00175 4.24072 7.97736 4.36388 7.92813C4.48704 7.8789 4.59934 7.8058 4.69437 7.71298C4.78939 7.62017 4.86528 7.50947 4.91771 7.3872C4.97013 7.26494 4.99806 7.1335 4.9999 7.00039C5.00174 6.86728 4.97746 6.73512 4.92844 6.61144C4.87941 6.48775 4.80661 6.37498 4.71419 6.27955L2.39466 4L4.71419 1.72045C4.80661 1.62502 4.87941 1.51225 4.92844 1.38856C4.97746 1.26488 5.00174 1.13271 4.9999 0.999609C4.99806 0.866502 4.97013 0.735063 4.91771 0.612796C4.86528 0.49053 4.78939 0.37983 4.69437 0.287017C4.59934 0.194204 4.48704 0.121095 4.36388 0.0718652C4.24072 0.0226356 4.10911 -0.00175094 3.97656 9.77643e-05C3.84401 0.00194646 3.71313 0.0299945 3.59137 0.08264C3.46962 0.135286 3.35939 0.211498 3.26696 0.306925L0.293211 3.29324Z" fill="#C8D0DF"/>
</svg>
