<svg width="128" height="114" viewBox="0 0 128 114" fill="none" xmlns="http://www.w3.org/2000/svg">
<path d="M126.121 106H78V104C78 102.826 77.174 102 76 102H66V92H104H108C109.038 92 110 91.0378 110 90C110 88.9622 109.038 88 108 88H106V44H110C110.776 44 111.561 43.317 111.842 42.5941C112.122 41.8712 111.93 41.0503 111.357 40.5273L98 28V12C98 9.85907 96.1409 8 94 8H86C83.8591 8 82 9.85907 82 12V14L69.3201 2.14611C66.2872 -0.623045 61.7125 -0.623045 58.6796 2.14611L16.6433 40.5273C16.0706 41.0503 15.878 41.8712 16.1583 42.5941C16.4389 43.317 17.2245 44 18 44H22V88H20C18.9625 88 18.0352 88.9709 18.0352 90.0087C18.0352 91.0465 18.9625 92 20 92H24H62V102H52C50.826 102 50 102.826 50 104V106H2C0.962474 106 0 107.006 0 108.044C0 109.082 0.962474 110 2 110H50V112C50 113.174 50.826 114 52 114H76C77.174 114 78 113.174 78 112V110H126C127.038 110 128 109.082 128 108.044C128 107.006 127.159 106 126.121 106ZM74 88H54V54.5C54 54 54 54 54.5 54H73.5C74 54 74 54 74 54.5V88ZM24 40H23L61.2133 4.92128C62.8019 3.47045 65.1981 3.47045 66.7869 4.92128L82.7724 19.5168C83.322 20.0188 84.1163 20.1483 84.7974 19.8482C85.4785 19.5478 85.9178 18.8735 85.9178 18.1293L86 12.5C86 12 86 12 86.5 12H93.5C94 12 94 12 94 12.5V29C94 29.5278 94.4061 30.1383 94.7959 30.4945L105 40H104C102.962 40 102 40.9622 102 42V88H78V54C78 51.8591 76.1409 50 74 50H54C51.8591 50 50 51.8505 50 53.9914V88H26V42C26 40.9625 25.0375 40 24 40ZM74 110H54V106H74V110Z" fill="#E5EBF3"/>
</svg>