<svg width="18" height="14" viewBox="0 0 18 14" fill="none" xmlns="http://www.w3.org/2000/svg">
<path d="M18 1C18 0.447715 17.5523 0 17 0H1C0.447716 0 0 0.447715 0 1C0 1.55228 0.447716 2 1 2H17C17.5523 2 18 1.55228 18 1Z" fill="#3F64A9"/>
<path d="M18 7C18 6.44772 17.5523 6 17 6H1C0.447716 6 0 6.44772 0 7C0 7.55228 0.447716 8 1 8H17C17.5523 8 18 7.55228 18 7Z" fill="#3F64A9"/>
<path d="M18 13C18 12.4477 17.5523 12 17 12H1C0.447716 12 0 12.4477 0 13C0 13.5523 0.447716 14 1 14H17C17.5523 14 18 13.5523 18 13Z" fill="#3F64A9"/>
</svg>
