<svg width="22" height="22" viewBox="0 0 22 22" fill="none" xmlns="http://www.w3.org/2000/svg">
<path d="M21.4319 9.51298C20.678 8.75914 19.4513 8.75914 18.6959 9.51453L18.0488 10.166V6.37768C18.0488 5.8612 17.8476 5.37565 17.4824 5.01046L15.6595 3.18742C15.5998 3.1277 15.5365 3.07282 15.4707 3.02199V0.644531C15.4707 0.288578 15.1821 0 14.8262 0H0.646484C0.290531 0 0.00195312 0.288578 0.00195312 0.644531V18.7344C0.00195312 19.0903 0.290531 19.3789 0.646484 19.3789H2.58008V21.3555C2.58008 21.7114 2.86866 22 3.22461 22H17.4043C17.7603 22 18.0488 21.7114 18.0488 21.3555V15.6536L21.4319 12.2475C22.1859 11.4936 22.1859 10.2669 21.4319 9.51298ZM14.1817 3.91016H14.2922C14.4644 3.91016 14.6263 3.97719 14.748 4.09892L16.571 5.92195C16.6927 6.04368 16.7598 6.20555 16.7598 6.37768V6.48828H14.1817V3.91016ZM2.58008 3.26562V18.0898H1.29102V1.28906H14.1816V2.62109H3.22461C2.86866 2.62109 2.58008 2.90967 2.58008 3.26562ZM16.7598 20.7109H3.86914V3.91016H12.8926V7.13281C12.8926 7.48877 13.1812 7.77734 13.5371 7.77734H16.7598V11.4638L12.3583 15.8951C12.2748 15.9792 12.216 16.0847 12.1886 16.2001L11.621 18.5851C11.5098 19.0528 11.9315 19.4709 12.3956 19.3618L14.7862 18.7997C14.9036 18.7721 15.0109 18.7121 15.096 18.6265C15.2713 18.45 16.5845 17.1279 16.7598 16.9514V20.7109ZM14.5595 17.3374L14.3114 17.5871L13.1167 17.868L13.4007 16.6749L13.647 16.4269C13.8446 16.5211 14.0264 16.6485 14.1829 16.805C14.3385 16.9606 14.4653 17.1412 14.5595 17.3374ZM15.5005 16.39C15.3824 16.2122 15.2465 16.0457 15.0944 15.8935C14.9392 15.7383 14.7689 15.6001 14.5871 15.4804C14.8209 15.2451 18.0124 12.0319 18.2463 11.7964L19.1578 12.7079L15.5005 16.39ZM20.5189 11.3376L20.0663 11.7933L19.1548 10.8818L19.609 10.4245C19.8603 10.1732 20.2693 10.1733 20.5205 10.4245C20.7718 10.6758 20.7718 11.0847 20.5189 11.3376Z" fill="#3F64A9"/>
<path d="M10.959 5.19922H5.80273C5.44678 5.19922 5.1582 5.4878 5.1582 5.84375C5.1582 6.1997 5.44678 6.48828 5.80273 6.48828H10.959C11.3149 6.48828 11.6035 6.1997 11.6035 5.84375C11.6035 5.4878 11.3149 5.19922 10.959 5.19922Z" fill="#3F64A9"/>
<path d="M10.959 7.77734H5.80273C5.44678 7.77734 5.1582 8.06592 5.1582 8.42188C5.1582 8.77783 5.44678 9.06641 5.80273 9.06641H10.959C11.3149 9.06641 11.6035 8.77783 11.6035 8.42188C11.6035 8.06592 11.3149 7.77734 10.959 7.77734Z" fill="#3F64A9"/>
<path d="M14.8262 10.3555H5.80273C5.44678 10.3555 5.1582 10.644 5.1582 11C5.1582 11.356 5.44678 11.6445 5.80273 11.6445H14.8262C15.1821 11.6445 15.4707 11.356 15.4707 11C15.4707 10.644 15.1821 10.3555 14.8262 10.3555Z" fill="#3F64A9"/>
<path d="M11.4147 14.4112C11.1631 14.1595 10.7549 14.1595 10.5033 14.4112L7.09182 17.8226L6.25848 16.9893C6.00681 16.7376 5.5987 16.7376 5.34699 16.9893C5.09528 17.2411 5.09528 17.6491 5.34699 17.9008L6.63605 19.1899C6.88772 19.4416 7.29588 19.4416 7.54754 19.1899L11.4147 15.3227C11.6664 15.071 11.6664 14.6629 11.4147 14.4112Z" fill="#3F64A9"/>
</svg>
