<svg width="240" height="80" viewBox="0 0 240 80" fill="none" xmlns="http://www.w3.org/2000/svg">
<path fill-rule="evenodd" clip-rule="evenodd" d="M46.3503 10.4651C46.5105 13.9075 44.35 17.7649 42.1356 19.9495L34.3411 27.6409L27.2729 34.615V26.0862C26.592 9.37372 39.3963 9.93844 46.3503 0V10.4651ZM29.3326 53.1506L30.903 51.6074L54.6413 28.1839V36.6905C54.7421 38.863 54.1098 40.0107 52.8903 41.2303L35.3739 58.5143V69.8173C32.902 70.9733 30.1465 71.6107 27.2619 71.5979V56.8179C27.2619 55.6037 27.5216 54.9311 29.3326 53.1506ZM54.6413 12.2146V20.7414C54.7427 22.9187 54.1082 24.0696 52.886 25.2924L46.8172 31.2801L46.8069 31.2913L12.8237 64.8555C11.0007 62.6775 9.67643 60.0901 9.00781 57.2732L30.3579 36.1901L30.3501 36.183L54.6413 12.2146Z" fill="url(#paint0_linear_1_2826)"/>
<path fill-rule="evenodd" clip-rule="evenodd" d="M54.5684 55.1949C53.9636 62.6166 50.367 69.0941 45.0413 73.5677C39.7154 78.0403 32.6609 80.5088 25.1387 79.912C17.6176 79.315 11.0523 75.7667 6.5192 70.5118C1.98575 65.2568 -0.514926 58.2949 0.089166 50.8733C0.694231 43.4516 4.2909 36.9735 9.61586 32.5005C13.8497 28.9445 19.1769 26.6562 24.9623 26.167V34.6151C21.2651 35.0736 17.8689 36.602 15.1354 38.898C11.4687 41.9772 8.99263 46.4368 8.57629 51.5464C8.16026 56.6561 9.8824 61.4487 13.0027 65.0658C16.1234 68.6836 20.6426 71.1267 25.8213 71.5372C30.9997 71.948 35.8567 70.2491 39.5225 67.1698C43.1892 64.0909 45.6646 59.6311 46.0812 54.5214C46.1448 53.7404 46.1581 52.967 46.1247 52.204L46.1415 52.1876V51.1855L54.652 42.788V52.4756C54.6698 53.3734 54.6429 54.2805 54.5684 55.1949ZM84.6559 55.0612V58.1951H80.8637V68.3572H77.3027V58.1951H73.4907V55.0612H84.6559ZM91.5084 55.0612C92.3431 55.0612 93.1161 55.1341 93.8282 55.2797C94.5406 55.4253 95.1596 55.6755 95.6859 56.03C96.2121 56.3845 96.6262 56.8529 96.9278 57.4355C97.229 58.0182 97.3798 58.7461 97.3798 59.6199C97.3798 60.4933 97.229 61.2216 96.9278 61.8042C96.6262 62.3865 96.2121 62.8521 95.6859 63.2002C95.1596 63.5483 94.5406 63.7985 93.8282 63.9505C93.1161 64.1024 92.3431 64.1786 91.5084 64.1786H89.7377V68.3572H86.1763V55.0612H91.5084ZM93.7222 59.6199C93.7222 59.3159 93.6677 59.066 93.5591 58.8696C93.4494 58.6734 93.2987 58.5179 93.1064 58.404C92.9141 58.2905 92.6959 58.2111 92.4517 58.1666C92.2082 58.1225 91.9514 58.1004 91.6822 58.1004H89.7377V61.1393H91.6822C91.9514 61.1393 92.2082 61.1173 92.4517 61.0728C92.6959 61.0286 92.9141 60.9493 93.1064 60.8354C93.2987 60.7215 93.4494 60.5663 93.5591 60.3702C93.6677 60.1737 93.7222 59.9238 93.7222 59.6199ZM96.5328 68.3572L101.827 55.0612H105.676L110.97 68.3572H107.312L106.543 66.2679H100.96L100.19 68.3572H96.5328ZM102.019 63.4187H105.484L104.098 59.5818C104.034 59.4173 103.976 59.2401 103.925 59.05C103.874 58.86 103.816 58.5877 103.751 58.2332C103.688 58.5877 103.63 58.86 103.578 59.05C103.527 59.2401 103.469 59.4173 103.405 59.5818L102.019 63.4187ZM124.387 55.0612V68.3572H120.826V63.2856H115.821V68.3572H112.26V55.0612H115.821V60.1516H120.826V55.0612H124.387ZM126.273 61.8992C126.273 60.6453 126.482 59.5693 126.9 58.6699C127.316 57.7708 127.868 57.0334 128.555 56.4574C129.241 55.8812 130.021 55.4569 130.893 55.1847C131.766 54.9124 132.658 54.7761 133.569 54.7761C134.262 54.7761 134.939 54.8458 135.6 54.9853C136.261 55.1245 136.887 55.3334 137.477 55.6121V58.9361C137.066 58.5941 136.569 58.3282 135.985 58.1385C135.401 57.9484 134.801 57.8534 134.185 57.8534C133.646 57.8534 133.123 57.9292 132.617 58.0812C132.11 58.2332 131.657 58.4706 131.26 58.7937C130.861 59.1166 130.54 59.5344 130.296 60.0473C130.053 60.5602 129.931 61.1774 129.931 61.8992C129.931 62.5449 130.053 63.0991 130.296 63.5611C130.54 64.0234 130.858 64.4 131.249 64.6912C131.641 64.9823 132.091 65.198 132.597 65.3371C133.104 65.4763 133.62 65.5461 134.147 65.5461C134.84 65.5461 135.488 65.4446 136.091 65.2421C136.694 65.0396 137.188 64.7548 137.573 64.3872V67.8062C136.38 68.3636 135.071 68.642 133.646 68.642C132.722 68.642 131.818 68.5124 130.932 68.2529C130.047 67.9931 129.261 67.5912 128.574 67.0467C127.887 66.5021 127.332 65.8056 126.909 64.9574C126.485 64.1088 126.273 63.0895 126.273 61.8992ZM151.663 55.0612V68.3572H148.102V63.2856H143.098V68.3572H139.537V55.0612H143.098V60.1516H148.102V55.0612H151.663ZM163.907 55.0612V58.1004H157.766V60.1328H163.329V63.1528H157.766V65.3183H164.022V68.3572H154.205V55.0612H163.907ZM171.548 69.1168V67.4834C170.548 67.4328 169.646 67.2652 168.844 66.9801C168.042 66.695 167.355 66.3092 166.784 65.8215C166.213 65.3339 165.774 64.7452 165.466 64.0548C165.157 63.3649 165.004 62.583 165.004 61.7092C165.004 60.8354 165.157 60.0534 165.466 59.3633C165.774 58.6734 166.213 58.0844 166.784 57.5968C167.355 57.1095 168.042 56.723 168.844 56.4382C169.646 56.1535 170.548 55.9855 171.548 55.9349V54.3013H174.917V55.9349C175.893 55.9983 176.778 56.1724 177.574 56.4574C178.37 56.7422 179.05 57.1284 179.614 57.616C180.179 58.1033 180.612 58.6923 180.913 59.3825C181.215 60.0726 181.366 60.8482 181.366 61.7092C181.366 62.5702 181.215 63.3457 180.913 64.0359C180.612 64.726 180.179 65.3147 179.614 65.8024C179.05 66.29 178.37 66.6762 177.574 66.9612C176.778 67.246 175.893 67.42 174.917 67.4834V69.1168H171.548ZM168.565 61.7092C168.565 62.0256 168.606 62.3424 168.69 62.6588C168.773 62.9752 168.928 63.2699 169.152 63.5422C169.377 63.8145 169.681 64.0487 170.066 64.2448C170.451 64.4413 170.945 64.5648 171.548 64.6153V58.803C170.945 58.8664 170.451 58.9931 170.066 59.1828C169.681 59.3729 169.377 59.6039 169.152 59.8762C168.928 60.1484 168.773 60.4428 168.69 60.7595C168.606 61.076 168.565 61.3924 168.565 61.7092ZM174.917 64.6153C175.495 64.552 175.969 64.4224 176.342 64.2259C176.714 64.0298 177.009 63.7953 177.227 63.5233C177.446 63.251 177.596 62.9564 177.68 62.6399C177.763 62.3235 177.805 62.0131 177.805 61.7092C177.805 61.4052 177.763 61.0952 177.68 60.7784C177.596 60.462 177.446 60.1676 177.227 59.8953C177.009 59.6231 176.714 59.3889 176.342 59.1924C175.969 58.9963 175.495 58.8664 174.917 58.803V64.6153ZM192.704 55.0612V58.1951H188.912V68.3572H185.351V58.1951H181.539V55.0612H192.704ZM203.927 55.0612V58.1004H197.786V60.1328H203.349V63.1528H197.786V65.3183H204.042V68.3572H194.225V55.0612H203.927ZM206.102 68.3572V55.0612H215.823V58.1951H209.663V68.3572H206.102ZM214.052 68.3572L219.345 55.0612H223.195L228.489 68.3572H224.832L224.061 66.2679H218.479L217.709 68.3572H214.052ZM219.538 63.4187H223.003L221.617 59.5818C221.553 59.4173 221.495 59.2401 221.443 59.05C221.392 58.86 221.335 58.5877 221.27 58.2332C221.206 58.5877 221.149 58.86 221.097 59.05C221.046 59.2401 220.988 59.4173 220.924 59.5818L219.538 63.4187ZM240 64.7292C240 65.4891 239.833 66.1191 239.5 66.6192C239.166 67.1193 238.73 67.5183 238.19 67.8158C237.652 68.1134 237.045 68.3255 236.372 68.4522C235.698 68.5789 235.015 68.642 234.322 68.642C233.577 68.642 232.785 68.5789 231.944 68.4522C231.103 68.3255 230.195 68.0974 229.22 67.7685V64.4445C230.183 64.9129 231.065 65.2104 231.867 65.3371C232.67 65.4638 233.391 65.5208 234.033 65.508C234.354 65.508 234.658 65.4859 234.947 65.4418C235.236 65.3973 235.49 65.3243 235.707 65.2229C235.926 65.1218 236.099 64.9858 236.227 64.815C236.356 64.6438 236.42 64.4317 236.42 64.1786C236.42 63.7354 236.256 63.4376 235.929 63.2856C235.601 63.1336 235.169 63.0578 234.629 63.0578H231.434L231.454 60.0185L234.418 60.0377C234.893 60.0377 235.258 59.9584 235.515 59.8003C235.772 59.6419 235.9 59.3981 235.9 59.0689C235.9 58.6891 235.723 58.4012 235.371 58.2047C235.017 58.0086 234.456 57.9103 233.686 57.9103C233.147 57.8979 232.525 57.9673 231.819 58.1193C231.113 58.2713 230.324 58.556 229.452 58.9739V55.6502C230.286 55.3206 231.085 55.0928 231.848 54.9661C232.611 54.8397 233.321 54.7761 233.975 54.7761C234.809 54.7761 235.563 54.8522 236.237 55.0042C236.911 55.1562 237.488 55.384 237.969 55.6879C238.451 55.9919 238.819 56.3749 239.076 56.8372C239.333 57.2992 239.461 57.8406 239.461 58.4613C239.461 59.1579 239.278 59.7463 238.913 60.2278C238.547 60.709 238.024 61.0635 237.344 61.2913C237.716 61.4052 238.066 61.5604 238.393 61.7565C238.72 61.953 239.002 62.1904 239.24 62.4691C239.477 62.7477 239.663 63.0767 239.798 63.4568C239.933 63.8366 240 64.2608 240 64.7292Z" fill="#0F306F"/>
<path d="M73.8564 45.1433C73.8564 43.8898 74.0649 42.8134 74.4823 41.9144C74.8989 41.0153 75.4511 40.2775 76.1376 39.7015C76.8241 39.1253 77.6039 38.7011 78.4765 38.4288C79.349 38.1565 80.2408 38.0205 81.1519 38.0205C81.8449 38.0205 82.5222 38.0899 83.1831 38.2294C83.8439 38.3686 84.4694 38.5779 85.0599 38.8562V42.1802C84.649 41.8382 84.152 41.5723 83.5676 41.3826C82.9837 41.1925 82.3838 41.0975 81.768 41.0975C81.2288 41.0975 80.7061 41.1733 80.1989 41.3253C79.6924 41.4773 79.2398 41.715 78.8419 42.0379C78.444 42.3607 78.1234 42.7786 77.8795 43.2914C77.6357 43.8043 77.5141 44.4215 77.5141 45.1433C77.5141 45.7893 77.6357 46.3432 77.8795 46.8052C78.1234 47.2675 78.4411 47.6444 78.8325 47.9356C79.2239 48.2267 79.6733 48.4421 80.1798 48.5813C80.6869 48.7204 81.2032 48.7902 81.7297 48.7902C82.4227 48.7902 83.0702 48.6888 83.6737 48.4862C84.2771 48.2837 84.7713 47.9989 85.1562 47.6316V51.0507C83.9623 51.6077 82.6536 51.8861 81.2288 51.8861C80.305 51.8861 79.4003 51.7565 78.5147 51.497C77.6295 51.2372 76.8435 50.8353 76.1571 50.2908C75.4703 49.7462 74.9151 49.0497 74.4917 48.2015C74.0682 47.3529 73.8564 46.3336 73.8564 45.1433ZM85.8679 51.6013L91.1621 38.3056H95.012L100.305 51.6013H96.6479L95.8781 49.512H90.2957L89.5255 51.6013H85.8679ZM91.3547 46.6628H94.8197L93.4335 42.8259C93.369 42.6615 93.3116 42.4842 93.2603 42.2941C93.2085 42.1041 93.1511 41.8318 93.0865 41.4773C93.023 41.8318 92.965 42.1041 92.9137 42.2941C92.8625 42.4842 92.8044 42.6615 92.7406 42.8259L91.3547 46.6628ZM100.113 51.6013L104.733 44.6874L100.401 38.3056H104.56L107.004 42.2183L109.449 38.3056H113.607L109.276 44.6874L113.896 51.6013H109.738L107.004 47.1376L104.271 51.6013H100.113ZM113.704 51.6013L118.997 38.3056H122.847L128.141 51.6013H124.483L123.713 49.512H118.131L117.361 51.6013H113.704ZM119.189 46.6628H122.654L121.268 42.8259C121.204 42.6615 121.147 42.4842 121.095 42.2941C121.044 42.1041 120.986 41.8318 120.922 41.4773C120.858 41.8318 120.8 42.1041 120.749 42.2941C120.697 42.4842 120.64 42.6615 120.575 42.8259L119.189 46.6628Z" fill="#0378B4"/>
<defs>
<linearGradient id="paint0_linear_1_2826" x1="27.8709" y1="17.3032" x2="46.2118" y2="17.3032" gradientUnits="userSpaceOnUse">
<stop stop-color="#0378B4"/>
<stop offset="1" stop-color="#82C5C3"/>
</linearGradient>
</defs>
</svg>
