<svg width="220" height="74" viewBox="0 0 220 74" fill="none" xmlns="http://www.w3.org/2000/svg">
<path fill-rule="evenodd" clip-rule="evenodd" d="M42.4884 9.6802C42.6353 12.8644 40.6548 16.4325 38.625 18.4533L31.48 25.5678L25.0008 32.0188V24.1298C24.3766 8.67069 36.1139 9.19305 42.4884 0V9.6802ZM26.8889 49.1643L28.3284 47.7369L50.0885 26.0701V33.9387C50.1809 35.9483 49.6013 37.0099 48.4834 38.1381L32.4267 54.1257V64.581C30.1609 65.6503 27.6349 66.2399 24.9907 66.2281V52.5566C24.9907 51.4334 25.2288 50.8113 26.8889 49.1643ZM50.0885 11.2985V19.1858C50.1815 21.1998 49.5998 22.2643 48.4795 23.3955L42.9165 28.9341L42.9069 28.9444L11.7557 59.9913C10.0846 57.9767 8.87071 55.5833 8.25781 52.9777L27.8287 33.4758L27.8216 33.4693L50.0885 11.2985Z" fill="url(#paint0_linear_226_128)"/>
<path fill-rule="evenodd" clip-rule="evenodd" d="M50.021 51.0549C49.4666 57.92 46.1697 63.9116 41.2879 68.0497C36.4058 72.1869 29.9391 74.4702 23.0438 73.9183C16.1494 73.366 10.1313 70.0838 5.97593 65.223C1.82027 60.3622 -0.472016 53.9225 0.0817355 47.0574C0.636378 40.1924 3.93332 34.2001 8.81454 30.0626C12.6955 26.7733 17.5788 24.6566 22.8821 24.2041V32.0186C19.493 32.4427 16.3798 33.8565 13.8741 35.9803C10.5129 38.8286 8.24325 42.9536 7.8616 47.6801C7.48024 52.4066 9.05886 56.8397 11.9192 60.1855C14.7798 63.5319 18.9224 65.7919 23.6695 66.1716C28.4164 66.5516 32.8687 64.98 36.2289 62.1317C39.5901 59.2837 41.8592 55.1584 42.2411 50.4319C42.2994 49.7095 42.3116 48.9942 42.281 48.2883L42.2964 48.2732V47.3463L50.0977 39.5785V48.5396C50.114 49.37 50.0894 50.2091 50.021 51.0549ZM77.6012 50.9312V53.8301H74.1251V63.23H70.8608V53.8301H67.3665V50.9312H77.6012ZM83.8827 50.9312C84.6478 50.9312 85.3564 50.9987 86.0092 51.1333C86.6622 51.268 87.2296 51.4994 87.712 51.8274C88.1944 52.1553 88.574 52.5886 88.8504 53.1275C89.1266 53.6664 89.2648 54.3398 89.2648 55.148C89.2648 55.956 89.1266 56.6296 88.8504 57.1685C88.574 57.7072 88.1944 58.1378 87.712 58.4598C87.2296 58.7818 86.6622 59.0132 86.0092 59.1538C85.3564 59.2944 84.6478 59.3648 83.8827 59.3648H82.2595V63.23H78.995V50.9312H83.8827ZM85.912 55.148C85.912 54.8669 85.862 54.6357 85.7625 54.454C85.662 54.2726 85.5238 54.1287 85.3475 54.0234C85.1713 53.9183 84.9712 53.8449 84.7474 53.8038C84.5242 53.7629 84.2888 53.7425 84.0421 53.7425H82.2595V56.5535H84.0421C84.2888 56.5535 84.5242 56.5331 84.7474 56.492C84.9712 56.4511 85.1713 56.3777 85.3475 56.2724C85.5238 56.167 85.662 56.0235 85.7625 55.842C85.862 55.6603 85.912 55.4292 85.912 55.148ZM88.4884 63.23L93.3411 50.9312H96.8699L101.723 63.23H98.3697L97.6644 61.2974H92.5469L91.8409 63.23H88.4884ZM93.5176 58.6619H96.6939L95.4232 55.1128C95.3641 54.9607 95.3115 54.7967 95.2645 54.6209C95.2175 54.4451 95.1643 54.1933 95.1055 53.8653C95.0469 54.1933 94.9937 54.4451 94.9468 54.6209C94.8998 54.7967 94.8466 54.9607 94.7883 55.1128L93.5176 58.6619ZM114.021 50.9312V63.23H110.757V58.5388H106.169V63.23H102.905V50.9312H106.169V55.6399H110.757V50.9312H114.021ZM115.751 57.2564C115.751 56.0966 115.942 55.1013 116.325 54.2693C116.707 53.4377 117.213 52.7555 117.842 52.2228C118.471 51.6897 119.185 51.2973 119.986 51.0454C120.786 50.7936 121.603 50.6675 122.438 50.6675C123.073 50.6675 123.694 50.732 124.3 50.8611C124.906 50.9898 125.479 51.1831 126.021 51.4408V54.5156C125.644 54.1992 125.188 53.9532 124.653 53.7777C124.118 53.6019 123.568 53.514 123.003 53.514C122.509 53.514 122.029 53.5842 121.565 53.7248C121.101 53.8653 120.686 54.0849 120.321 54.3839C119.956 54.6825 119.662 55.069 119.438 55.5434C119.215 56.0178 119.103 56.5887 119.103 57.2564C119.103 57.8537 119.215 58.3663 119.438 58.7936C119.662 59.2213 119.953 59.5696 120.312 59.839C120.671 60.1083 121.083 60.3078 121.547 60.4365C122.012 60.5652 122.485 60.6298 122.968 60.6298C123.603 60.6298 124.197 60.5359 124.75 60.3486C125.303 60.1613 125.756 59.8979 126.109 59.5578V62.7204C125.015 63.236 123.815 63.4935 122.509 63.4935C121.662 63.4935 120.833 63.3736 120.021 63.1336C119.21 62.8932 118.489 62.5215 117.86 62.0178C117.23 61.5141 116.721 60.8698 116.333 60.0852C115.945 59.3003 115.751 58.3574 115.751 57.2564ZM139.025 50.9312V63.23H135.76V58.5388H131.173V63.23H127.909V50.9312H131.173V55.6399H135.76V50.9312H139.025ZM150.248 50.9312V53.7425H144.618V55.6224H149.718V58.416H144.618V60.419H150.353V63.23H141.354V50.9312H150.248ZM157.253 63.9326V62.4218C156.335 62.375 155.509 62.2199 154.774 61.9562C154.038 61.6925 153.409 61.3356 152.886 60.8846C152.362 60.4335 151.959 59.889 151.677 59.2503C151.394 58.6122 151.253 57.8889 151.253 57.0806C151.253 56.2724 151.394 55.549 151.677 54.9107C151.959 54.2726 152.362 53.7277 152.886 53.2767C153.409 52.8259 154.038 52.4684 154.774 52.205C155.509 51.9416 156.335 51.7862 157.253 51.7395V50.2283H160.341V51.7395C161.235 51.7981 162.046 51.9591 162.776 52.2228C163.505 52.4862 164.129 52.8434 164.647 53.2944C165.164 53.7452 165.561 54.29 165.837 54.9284C166.114 55.5668 166.252 56.2842 166.252 57.0806C166.252 57.8771 166.114 58.5945 165.837 59.2328C165.561 59.8712 165.164 60.4158 164.647 60.8668C164.129 61.3179 163.505 61.6751 162.776 61.9388C162.046 62.2022 161.235 62.3632 160.341 62.4218V63.9326H157.253ZM154.518 57.0806C154.518 57.3733 154.556 57.6663 154.633 57.959C154.709 58.2517 154.85 58.5243 155.056 58.7762C155.262 59.028 155.541 59.2447 155.894 59.4261C156.247 59.6078 156.7 59.722 157.253 59.7688V54.3924C156.7 54.451 156.247 54.5682 155.894 54.7437C155.541 54.9195 155.262 55.1332 155.056 55.3851C154.85 55.6369 154.709 55.9092 154.633 56.2022C154.556 56.4949 154.518 56.7876 154.518 57.0806ZM160.341 59.7688C160.87 59.7102 161.305 59.5904 161.647 59.4086C161.988 59.2272 162.258 59.0103 162.458 58.7587C162.658 58.5068 162.796 58.2343 162.873 57.9416C162.949 57.6489 162.988 57.3618 162.988 57.0806C162.988 56.7995 162.949 56.5127 162.873 56.2197C162.796 55.927 162.658 55.6547 162.458 55.4028C162.258 55.151 161.988 54.9343 161.647 54.7526C161.305 54.5712 160.87 54.451 160.341 54.3924V59.7688ZM176.645 50.9312V53.8301H173.169V63.23H169.905V53.8301H166.411V50.9312H176.645ZM186.933 50.9312V53.7425H181.303V55.6224H186.403V58.416H181.303V60.419H187.038V63.23H178.039V50.9312H186.933ZM188.927 63.23V50.9312H197.837V53.8301H192.191V63.23H188.927ZM196.214 63.23L201.066 50.9312H204.596L209.448 63.23H206.096L205.39 61.2974H200.273L199.567 63.23H196.214ZM201.243 58.6619H204.419L203.149 55.1128C203.09 54.9607 203.037 54.7967 202.99 54.6209C202.943 54.4451 202.89 54.1933 202.831 53.8653C202.772 54.1933 202.72 54.4451 202.673 54.6209C202.625 54.7967 202.572 54.9607 202.513 55.1128L201.243 58.6619ZM220 59.8742C220 60.5771 219.847 61.1598 219.541 61.6224C219.236 62.085 218.835 62.454 218.341 62.7293C217.848 63.0045 217.291 63.2007 216.674 63.3179C216.056 63.4351 215.43 63.4935 214.795 63.4935C214.113 63.4935 213.386 63.4351 212.615 63.3179C211.845 63.2007 211.012 62.9897 210.119 62.6855V59.6108C211.001 60.0441 211.81 60.3193 212.545 60.4365C213.28 60.5537 213.942 60.6064 214.53 60.5945C214.824 60.5945 215.103 60.5741 215.368 60.5333C215.633 60.4921 215.865 60.4247 216.065 60.3308C216.266 60.2373 216.424 60.1115 216.541 59.9535C216.659 59.7952 216.718 59.5989 216.718 59.3648C216.718 58.9549 216.568 58.6794 216.268 58.5388C215.968 58.3982 215.571 58.3281 215.077 58.3281H212.148L212.166 55.5168L214.883 55.5345C215.319 55.5345 215.653 55.4611 215.889 55.3149C216.124 55.1684 216.241 54.9429 216.241 54.6384C216.241 54.2871 216.08 54.0207 215.756 53.839C215.433 53.6576 214.918 53.5667 214.212 53.5667C213.718 53.5552 213.148 53.6194 212.501 53.76C211.854 53.9006 211.13 54.164 210.331 54.5505V51.4761C211.095 51.1712 211.827 50.9605 212.527 50.8433C213.227 50.7264 213.877 50.6675 214.477 50.6675C215.242 50.6675 215.933 50.7379 216.55 50.8785C217.168 51.0191 217.697 51.2298 218.139 51.511C218.58 51.7921 218.918 52.1464 219.153 52.5741C219.389 53.0014 219.506 53.5022 219.506 54.0764C219.506 54.7207 219.338 55.2649 219.003 55.7103C218.668 56.1555 218.188 56.4834 217.565 56.6941C217.906 56.7995 218.227 56.943 218.527 57.1244C218.827 57.3061 219.085 57.5257 219.303 57.7835C219.521 58.0413 219.691 58.3456 219.815 58.6971C219.939 59.0485 220 59.4409 220 59.8742Z" fill="#28386D"/>
<path d="M67.7031 41.7576C67.7031 40.598 67.8942 39.6024 68.2768 38.7708C68.6587 37.9391 69.1649 37.2566 69.7942 36.7239C70.4234 36.1909 71.1383 35.7984 71.9381 35.5466C72.738 35.2947 73.5554 35.1689 74.3906 35.1689C75.0258 35.1689 75.6468 35.2332 76.2525 35.3622C76.8583 35.4909 77.4317 35.6845 77.9729 35.942V39.0167C77.5963 38.7003 77.1407 38.4544 76.6051 38.2789C76.0697 38.1031 75.5198 38.0152 74.9554 38.0152C74.4611 38.0152 73.9819 38.0853 73.5171 38.2259C73.0528 38.3665 72.6378 38.5864 72.2731 38.885C71.9084 39.1836 71.6145 39.5701 71.3909 40.0446C71.1674 40.519 71.056 41.0899 71.056 41.7576C71.056 42.3551 71.1674 42.8674 71.3909 43.2948C71.6145 43.7224 71.9057 44.0711 72.2645 44.3404C72.6233 44.6097 73.0352 44.8089 73.4995 44.9376C73.9644 45.0664 74.4376 45.1309 74.9203 45.1309C75.5555 45.1309 76.1491 45.0371 76.7022 44.8497C77.2554 44.6624 77.7084 44.399 78.0612 44.0592V47.2218C76.9668 47.7371 75.7671 47.9946 74.4611 47.9946C73.6143 47.9946 72.785 47.8747 71.9732 47.6347C71.1618 47.3944 70.4413 47.0227 69.812 46.5189C69.1825 46.0152 68.6736 45.3709 68.2854 44.5863C67.8972 43.8015 67.7031 42.8585 67.7031 41.7576ZM78.7136 47.7312L83.5666 35.4326H87.0957L91.9481 47.7312H88.5953L87.8896 45.7986H82.7724L82.0665 47.7312H78.7136ZM83.7432 43.1631H86.9194L85.6488 39.6139C85.5896 39.4618 85.537 39.2979 85.49 39.1221C85.4425 38.9463 85.3899 38.6944 85.3307 38.3665C85.2725 38.6944 85.2193 38.9463 85.1723 39.1221C85.1253 39.2979 85.0721 39.4618 85.0136 39.6139L83.7432 43.1631ZM91.7715 47.7312L96.0063 41.3358L92.0361 35.4326H95.8478L98.0884 39.0519L100.33 35.4326H104.141L100.171 41.3358L104.406 47.7312H100.594L98.0884 43.6023L95.5833 47.7312H91.7715ZM104.23 47.7312L109.082 35.4326H112.611L117.464 47.7312H114.111L113.405 45.7986H108.288L107.582 47.7312H104.23ZM109.258 43.1631H112.435L111.164 39.6139C111.105 39.4618 111.052 39.2979 111.005 39.1221C110.958 38.9463 110.905 38.6944 110.847 38.3665C110.788 38.6944 110.735 38.9463 110.688 39.1221C110.641 39.2979 110.588 39.4618 110.529 39.6139L109.258 43.1631Z" fill="#0378B4"/>
<defs>
<linearGradient id="paint0_linear_226_128" x1="25.5489" y1="16.0054" x2="42.3615" y2="16.0054" gradientUnits="userSpaceOnUse">
<stop stop-color="#0378B4"/>
<stop offset="1" stop-color="#82C5C3"/>
</linearGradient>
</defs>
</svg>
